<svg xmlns="http://www.w3.org/2000/svg" width="1280" height="380" viewBox="0 0 1280 380">
  <defs>
    <style>
      .cls-1 {
        fill: #fff;
      }

      .cls-1, .cls-2 {
        fill-rule: evenodd;
      }

      .cls-2 {
        fill: none;
        stroke: #0fc;
        stroke-width: 19.81px;
      }
    </style>
  </defs>
  <path id="Christian" class="cls-1" d="M471.107,204.764V178.5a135.256,135.256,0,0,1-21.292,1.656q-12.066,0-16.679-3.194t-5.914-13.6q-1.3-10.407-1.3-37.852t1.3-37.852q1.3-10.407,5.914-13.6t16.679-3.194a189.5,189.5,0,0,1,20.818,1.656v-26.5A55.466,55.466,0,0,0,458.686,43.3a112.861,112.861,0,0,0-15.5-1.065q-21.769,0-32.293,7.334T396.822,74.056q-3.549,17.156-3.548,51.455,0,34.543,3.43,51.573t13.839,24.368q10.409,7.335,32.648,7.333a102.178,102.178,0,0,0,15.022-1.182,78.485,78.485,0,0,0,12.894-2.839h0Zm86.348,2.129h30.519V127.167q0-15.846-2.011-24.84t-7.807-13.485q-5.8-4.491-17.152-4.495A34.381,34.381,0,0,0,544.8,87.9q-6.743,3.549-9.818,12.3h-1.656V31.118H502.807V206.893h30.518V145.147q0-15.375.71-21.883t3.193-8.872q2.484-2.363,8.635-2.366,5.911,0,8.044,1.538t2.839,7.216q0.71,5.677.709,20.818v65.295Zm66,0h30.518V152.008q0-13.958,2.957-21.765t9.227-10.883q6.266-3.072,16.915-3.075V84.347q-11.123,0-17.743,4.731T655.16,106.112h-1.893L652.321,86.24H623.459V206.893ZM742.219,59.98V31.118H711.227V59.98h30.992Zm-0.237,146.913V86.24H711.464V206.893h30.518Zm69.315,1.892q19.162,0,28.389-8.4t9.226-30.636q0-13.718-2.72-21.056t-6.979-10.054a29.988,29.988,0,0,0-10.883-3.9l-17.27-2.6a16.454,16.454,0,0,1-5.323-1.3,4.144,4.144,0,0,1-2.011-2.957,38.53,38.53,0,0,1-.473-7.334q0-6.621,2.957-8.635t11.948-2.011a209.424,209.424,0,0,1,25.076,1.893V88.132a86.2,86.2,0,0,0-14.194-2.721,137.481,137.481,0,0,0-16.56-1.064q-19.64,0-29.572,8.162t-9.936,28.507q0,17.982,3.9,25.9t13.367,9.345l19.872,3.312a26.364,26.364,0,0,1,6.269,1.538,4.4,4.4,0,0,1,2.366,3.075,34.437,34.437,0,0,1,.591,7.689q0,4.968-1.3,7.334a6.876,6.876,0,0,1-4.731,3.193,48.611,48.611,0,0,1-10.528.828,260.174,260.174,0,0,1-26.969-1.656V205a142.7,142.7,0,0,0,17.151,2.721,175.227,175.227,0,0,0,18.335,1.064h0Zm105.512-1.892v-95.1h19.162V86.24H916.809V51.227H886.29V86.24h-14.9v25.55h14.9v95.1h30.519Zm78.3-146.913V31.118H964.12V59.98h30.992Zm-0.237,146.913V86.24H964.357V206.893h30.518Zm58.435,1.892a32.074,32.074,0,0,0,15.37-3.666q6.87-3.666,9.94-12.421h1.66l0.94,14.195h29.1V133.082q0-18.925-3.31-29.1a24.652,24.652,0,0,0-12.54-14.9q-9.225-4.73-26.97-4.731a181.667,181.667,0,0,0-35.72,3.549v23.657q16.56-1.651,26.5-1.656c6.77,0,11.55.4,14.31,1.183a8.205,8.205,0,0,1,5.68,5.323q1.53,4.141,1.53,14.076v5.441q-14.19-.942-22.71-0.946-12.06,0-18.81,3.667a20.525,20.525,0,0,0-9.58,11.592q-2.835,7.929-2.84,21.883,0,18.93,6.39,27.8t21.06,8.871h0Zm13.25-26.5c-4.74,0-7.77-.865-9.11-2.6s-2.01-5.124-2.01-10.173q0-8.75,2.01-11.356t8.16-2.6h14.19v5.915q0,12.3-2.6,16.323a8.429,8.429,0,0,1-4.14,3.549,18.526,18.526,0,0,1-6.5.946h0Zm133.9,24.6h30.51V127.64q0-16.085-2.01-25.2t-7.8-13.6q-5.805-4.491-17.16-4.495-9.69,0-16.56,3.667t-10.17,12.657h-1.65l-0.95-14.431h-28.86V206.893h30.51V145.147q0-15.375.71-21.883t3.2-8.872q2.475-2.363,8.63-2.366c3.94,0,6.63.514,8.05,1.538s2.36,3.43,2.84,7.216a200.563,200.563,0,0,1,.71,20.818v65.295Z"/>
  <path id="Oliveira" class="cls-1" d="M925.023,257.528a8.7,8.7,0,0,0-2.55-6.479,8.914,8.914,0,0,0-6.519-2.51H880.486a8.6,8.6,0,0,0-8.988,8.989V366.279a8.6,8.6,0,0,0,8.988,8.988h35.468a8.906,8.906,0,0,0,6.519-2.51,8.693,8.693,0,0,0,2.55-6.478V257.528ZM882.754,365.307V258.5h31.014V365.307H882.754Zm72.474-116.768H944.62V375.267h10.608V248.539Zm29.718,17.086H974.014v13.6h10.932v-13.6Zm-0.162,30.852H974.176v78.79h10.608v-78.79Zm51.906,0-13.6,62.028-13.45-62.028H998.55l19.6,78.952h9.79l19.52-78.952h-10.77Zm68.02,55.388h-10.45v14.414H1071.1v-28.5h29.97l3.64-3.806V305.628q0-9.15-9.07-9.151h-25.91q-9.075,0-9.07,9.151v60.489q0,9.151,9.07,9.15h25.91q9.075,0,9.07-9.15V351.865Zm-33.61-22.673V305.466h23.16v23.726H1071.1Zm62.84-63.567h-10.93v13.6h10.93v-13.6Zm-0.16,30.852h-10.61v78.79h10.61v-78.79Zm59.52,8.341q0-8.826-8.91-8.827a75.078,75.078,0,0,0-10.77.972q-5.43.892-10.77,1.7v-2.187h-10.77v78.79h10.77V306.761l19.84-.648V322.39h10.61V304.818Zm58.22,0.81q0-9.15-9.07-9.151h-25.91q-9.075,0-9.07,9.151v13.28h10.44V305.466h23.16v23.726h-25.34q-9.15,0-9.15,9.069v28.747q0,8.745,8.82,8.745a109.918,109.918,0,0,0,12.72-.972q6.39-.808,12.79-1.7v2.186h10.61V305.628Zm-34.5,60.327V337.613h24.05v27.856Z"/>
  <path id="Ret창ngulo_1" data-name="Ret창ngulo 1" class="cls-2" d="M200.534,15.343L340.705,161.981,200.534,295.969,60.364,149.331Z"/>
  <path id="Ret창ngulo_1_copiar" data-name="Ret창ngulo 1 copiar" class="cls-2" d="M200.534,78.33L340.705,224.968,200.534,358.956,60.364,212.318Z"/>
</svg>
